<?xml version="1.0" encoding="UTF-8"?>
<svg id="Layer_2" data-name="Layer 2" xmlns="http://www.w3.org/2000/svg" viewBox="0 0 362.6 101.19">
  <defs>
    <style>
      .cls-1 {
        fill: #fff;
        stroke-width: 0px;
      }
    </style>
  </defs>
  <g id="Layer_1-2" data-name="Layer 1">
    <g>
      <g>
        <path class="cls-1" d="m238.2,39.38h18.32c.84,0,1.49-.65,1.49-1.49V8.53c0-.84-.65-1.49-1.49-1.49h-18.32V.57h18.32c.84,0,1.49.65,1.49,1.49v3.49c0,.84.65,1.49,1.49,1.49h3.62c.84,0,1.49-.65,1.49-1.49v-3.49c0-.84.65-1.49,1.49-1.49h18.32v6.47h-18.32c-.84,0-1.49.65-1.49,1.49v29.36c0,.84.65,1.49,1.49,1.49h18.32v6.47h-18.32c-.84,0-1.49-.65-1.49-1.49v-3.49c0-.84-.65-1.49-1.49-1.49h-3.62c-.84,0-1.49.65-1.49,1.49v3.49c0,.84-.65,1.49-1.49,1.49h-18.32v-6.47Z"/>
        <path class="cls-1" d="m292.05,2.06c0-.84.65-1.49,1.49-1.49h39.96c.84,0,1.49.65,1.49,1.49v3.49c0,.84.65,1.49,1.49,1.49h3.62c.84,0,1.49.65,1.49,1.49v29.36c0,.84-.65,1.49-1.49,1.49h-3.62c-.84,0-1.49.65-1.49,1.49v3.49c0,.84-.65,1.49-1.49,1.49h-39.96c-.84,0-1.49-.65-1.49-1.49V2.06Zm41.45,37.32c.84,0,1.49-.65,1.49-1.49V8.53c0-.84-.65-1.49-1.49-1.49h-34.85v32.34h34.85Z"/>
        <path class="cls-1" d="m231.63,8.53v9.96c0,.84-.65,1.49-1.49,1.49h-3.62c-.84,0-1.49.65-1.49,1.49v3.49c0,.84-.65,1.49-1.49,1.49h-10.25c-.84,0-1.49-.65-1.49-1.49v-3.49c0-.84.65-1.49,1.49-1.49h10.25c.84,0,1.49-.65,1.49-1.49v-9.96c0-.84-.65-1.49-1.49-1.49h-36.68c-.84,0-1.49.65-1.49,1.49v37.32h-6.6V8.53c0-.84.65-1.49,1.49-1.49h3.62c.84,0,1.49-.65,1.49-1.49v-3.49c0-.84.65-1.49,1.49-1.49h36.68c.84,0,1.49.65,1.49,1.49v3.49c0,.84.65,1.49,1.49,1.49h3.62c.84,0,1.49.65,1.49,1.49Z"/>
        <path class="cls-1" d="m198.61,21.46c0-.84.65-1.49,1.49-1.49h3.62c.84,0,1.49.65,1.49,1.49v3.49c0,.84.65,1.49,1.49,1.49h3.62c.84,0,1.49.65,1.49,1.49v3.49c0,.84.65,1.49,1.49,1.49h3.62c.84,0,1.49.65,1.49,1.49v3.49c0,.84.65,1.49,1.49,1.49h3.62c.84,0,1.49.65,1.49,1.49v3.49c0,.84-.65,1.49-1.49,1.49h-3.62c-.84,0-1.49-.65-1.49-1.49v-3.49c0-.84-.65-1.49-1.49-1.49h-3.62c-.84,0-1.49-.65-1.49-1.49v-3.49c0-.84-.65-1.49-1.49-1.49h-3.62c-.84,0-1.49-.65-1.49-1.49v-3.49c0-.84-.65-1.49-1.49-1.49h-3.62c-.84,0-1.49-.65-1.49-1.49v-3.49Z"/>
        <path class="cls-1" d="m164.46,45.85h-33.36c-.84,0-1.49-.65-1.49-1.49v-3.49c0-.84-.65-1.49-1.49-1.49h-3.62c-.84,0-1.49-.65-1.49-1.49V8.53c0-.84.65-1.49,1.49-1.49h3.62c.84,0,1.49-.65,1.49-1.49v-3.49c0-.84.65-1.49,1.49-1.49h33.36c.84,0,1.49.65,1.49,1.49v3.49c0,.84.65,1.49,1.49,1.49h3.62c.84,0,1.49.65,1.49,1.49v4.98h-6.6v-4.98c0-.84-.65-1.49-1.49-1.49h-33.36c-.84,0-1.49.65-1.49,1.49v29.36c0,.84.65,1.49,1.49,1.49h33.36c.84,0,1.49-.65,1.49-1.49v-9.96c0-.84-.65-1.49-1.49-1.49h-11.71v-6.47h11.71c.84,0,1.49.65,1.49,1.49v3.49c0,.84.65,1.49,1.49,1.49h3.62c.84,0,1.49.65,1.49,1.49v9.96c0,.84-.65,1.49-1.49,1.49h-3.62c-.84,0-1.49.65-1.49,1.49v3.49c0,.84-.65,1.49-1.49,1.49Z"/>
        <path class="cls-1" d="m131.21,55.92h33.36c.84,0,1.49.65,1.49,1.49v3.49c0,.84.65,1.49,1.49,1.49h3.62c.84,0,1.49.65,1.49,1.49v4.98h-6.6v-4.98c0-.84-.65-1.49-1.49-1.49h-33.36c-.84,0-1.49.65-1.49,1.49v9.96c0,.84.65,1.49,1.49,1.49h18.3v6.47h-18.3c-.84,0-1.49.65-1.49,1.49v17.92h-6.6v-17.92c0-.84.65-1.49,1.49-1.49h3.62c.84,0,1.49-.65,1.49-1.49v-3.49c0-.84-.65-1.49-1.49-1.49h-3.62c-.84,0-1.49-.65-1.49-1.49v-9.96c0-.84.65-1.49,1.49-1.49h3.62c.84,0,1.49-.65,1.49-1.49v-3.49c0-.84.65-1.49,1.49-1.49Z"/>
        <g>
          <path class="cls-1" d="m290.08,63.87v9.96c0,.84-.65,1.49-1.49,1.49h-3.62c-.84,0-1.49.65-1.49,1.49v3.49c0,.84-.65,1.49-1.49,1.49h-10.25c-.84,0-1.49-.65-1.49-1.49v-3.49c0-.84.65-1.49,1.49-1.49h10.25c.84,0,1.49-.65,1.49-1.49v-9.96c0-.84-.65-1.49-1.49-1.49h-36.68c-.84,0-1.49.65-1.49,1.49v37.32h-6.6v-37.32c0-.84.65-1.49,1.49-1.49h3.62c.84,0,1.49-.65,1.49-1.49v-3.49c0-.84.65-1.49,1.49-1.49h36.68c.84,0,1.49.65,1.49,1.49v3.49c0,.84.65,1.49,1.49,1.49h3.62c.84,0,1.49.65,1.49,1.49Z"/>
          <path class="cls-1" d="m257.06,76.81c0-.84.65-1.49,1.49-1.49h3.62c.84,0,1.49.65,1.49,1.49v3.49c0,.84.65,1.49,1.49,1.49h3.62c.84,0,1.49.65,1.49,1.49v3.49c0,.84.65,1.49,1.49,1.49h3.62c.84,0,1.49.65,1.49,1.49v3.49c0,.84.65,1.49,1.49,1.49h3.62c.84,0,1.49.65,1.49,1.49v3.49c0,.84-.65,1.49-1.49,1.49h-3.62c-.84,0-1.49-.65-1.49-1.49v-3.49c0-.84-.65-1.49-1.49-1.49h-3.62c-.84,0-1.49-.65-1.49-1.49v-3.49c0-.84-.65-1.49-1.49-1.49h-3.62c-.84,0-1.49-.65-1.49-1.49v-3.49c0-.84-.65-1.49-1.49-1.49h-3.62c-.84,0-1.49-.65-1.49-1.49v-3.49Z"/>
        </g>
        <path class="cls-1" d="m186.64,99.7v-3.49c0-.84-.65-1.49-1.49-1.49h-3.62c-.84,0-1.49-.65-1.49-1.49v-29.36c0-.84.65-1.49,1.49-1.49h3.62c.84,0,1.49-.65,1.49-1.49v-3.49c0-.84.65-1.49,1.49-1.49h33.36c.84,0,1.49.65,1.49,1.49v3.49c0,.84.65,1.49,1.49,1.49h3.62c.84,0,1.49.65,1.49,1.49v29.36c0,.84-.65,1.49-1.49,1.49h-3.62c-.84,0-1.49.65-1.49,1.49v3.49c0,.84-.65,1.49-1.49,1.49h-33.36c-.84,0-1.49-.65-1.49-1.49Zm1.49-4.98h33.36c.84,0,1.49-.65,1.49-1.49v-29.36c0-.84-.65-1.49-1.49-1.49h-33.36c-.84,0-1.49.65-1.49,1.49v29.36c0,.84.65,1.49,1.49,1.49Z"/>
        <path class="cls-1" d="m362.6,63.87v37.32h-6.6v-37.32c0-.84-.65-1.49-1.49-1.49h-20.17c-.84,0-1.49.65-1.49,1.49v37.32h-6.6v-37.32c0-.84-.65-1.49-1.49-1.49h-20.17c-.84,0-1.49.65-1.49,1.49v37.32h-6.6v-37.32c0-.84.65-1.49,1.49-1.49h3.62c.84,0,1.49-.65,1.49-1.49v-3.49c0-.84.65-1.49,1.49-1.49h20.17c.84,0,1.49.65,1.49,1.49v3.49c0,.84.65,1.49,1.49,1.49h3.62c.84,0,1.49-.65,1.49-1.49v-3.49c0-.84.65-1.49,1.49-1.49h20.1c.84,0,1.55.65,1.55,1.49v3.49c0,.84.65,1.49,1.49,1.49h3.62c.84,0,1.49.65,1.49,1.49Z"/>
      </g>
      <g>
        <path class="cls-1" d="m100.98,1.88v61.38c0,1.39-1.13,2.52-2.52,2.52h-26.1c-3.02,0-5.47,2.45-5.47,5.47v25.43c0,1.39-1.13,2.52-2.52,2.52H1.65v-30.47h62.72c3.02,0,5.47-2.45,5.47-5.47V1.88h31.14m1.48-1.48h-34.09v62.86c0,2.21-1.79,4-4,4H.17v33.43h64.19c2.21,0,4-1.79,4-4v-25.43c0-2.21,1.79-4,4-4h26.1c2.21,0,4-1.79,4-4V.41h0Z"/>
        <path class="cls-1" d="m100.98,1.88v30.47h-62.72c-3.02,0-5.47,2.45-5.47,5.47v61.38H1.65v-61.38c0-1.39,1.13-2.52,2.52-2.52h26.1c3.02,0,5.47-2.45,5.47-5.47V4.4c0-1.39,1.13-2.52,2.52-2.52h62.72m1.48-1.48H38.26c-2.21,0-4,1.79-4,4v25.43c0,2.21-1.79,4-4,4H4.17c-2.21,0-4,1.79-4,4v62.86h34.09v-62.86c0-2.21,1.79-4,4-4h64.19V.41h0Z"/>
        <rect class="cls-1" x="70.47" y="69.25" width="32.05" height="31.59" rx="3.89" ry="3.89"/>
        <rect class="cls-1" width="32.05" height="31.59" rx="3.43" ry="3.43"/>
      </g>
    </g>
  </g>
</svg>