<?xml version="1.0" encoding="UTF-8"?>
<svg id="Layer_2" data-name="Layer 2" xmlns="http://www.w3.org/2000/svg" viewBox="0 0 1609.49 136.91">
  <defs>
    <style>
      .cls-1 {
        fill: #fff;
        stroke-width: 0px;
      }
    </style>
  </defs>
  <g id="Layer_1-2" data-name="Layer 1">
    <g>
      <path class="cls-1" d="m554.21,117.41h55.25c2.54,0,4.49-1.95,4.49-4.49V24.38c0-2.54-1.95-4.49-4.49-4.49h-55.25V.39h55.25c2.54,0,4.49,1.95,4.49,4.49v10.53c0,2.54,1.95,4.49,4.49,4.49h10.92c2.54,0,4.49-1.95,4.49-4.49V4.88c0-2.54,1.95-4.49,4.49-4.49h55.25v19.5h-55.25c-2.54,0-4.49,1.95-4.49,4.49v88.54c0,2.54,1.95,4.49,4.49,4.49h55.25v19.5h-55.25c-2.54,0-4.49-1.95-4.49-4.49v-10.53c0-2.54-1.95-4.49-4.49-4.49h-10.92c-2.54,0-4.49,1.95-4.49,4.49v10.53c0,2.54-1.95,4.49-4.49,4.49h-55.25v-19.5Z"/>
      <path class="cls-1" d="m716.58,4.88c0-2.54,1.95-4.49,4.49-4.49h120.49c2.54,0,4.49,1.95,4.49,4.49v10.53c0,2.54,1.95,4.49,4.49,4.49h10.92c2.54,0,4.49,1.95,4.49,4.49v88.54c0,2.54-1.95,4.49-4.49,4.49h-10.92c-2.54,0-4.49,1.95-4.49,4.49v10.53c0,2.54-1.95,4.49-4.49,4.49h-120.49c-2.54,0-4.49-1.95-4.49-4.49V4.88Zm124.98,112.53c2.54,0,4.49-1.95,4.49-4.49V24.38c0-2.54-1.95-4.49-4.49-4.49h-105.08v97.51h105.08Z"/>
      <path class="cls-1" d="m911.75.39h100.6c2.54,0,4.49,1.95,4.49,4.49v10.53c0,2.54,1.95,4.49,4.49,4.49h10.92c2.54,0,4.49,1.95,4.49,4.49v15.02h-19.89v-15.02c0-2.54-1.95-4.49-4.49-4.49h-100.6c-2.54,0-4.49,1.95-4.49,4.49v30.03c0,2.54,1.95,4.49,4.49,4.49h55.19v19.5h-55.19c-2.54,0-4.49,1.95-4.49,4.49v54.02h-19.89v-54.02c0-2.54,1.95-4.49,4.49-4.49h10.92c2.54,0,4.49-1.95,4.49-4.49v-10.53c0-2.54-1.95-4.49-4.49-4.49h-10.92c-2.54,0-4.49-1.95-4.49-4.49v-30.03c0-2.54,1.95-4.49,4.49-4.49h10.92c2.54,0,4.49-1.95,4.49-4.49V4.88c0-2.54,1.95-4.49,4.49-4.49Z"/>
      <g>
        <path class="cls-1" d="m1390.81,24.38v30.03c0,2.54-1.95,4.49-4.49,4.49h-10.92c-2.54,0-4.49,1.95-4.49,4.49v10.53c0,2.54-1.95,4.49-4.49,4.49h-30.92c-2.54,0-4.49-1.95-4.49-4.49v-10.53c0-2.54,1.95-4.49,4.49-4.49h30.92c2.54,0,4.49-1.95,4.49-4.49v-30.03c0-2.54-1.95-4.49-4.49-4.49h-110.6c-2.54,0-4.49,1.95-4.49,4.49v112.53h-19.89V24.38c0-2.54,1.95-4.49,4.49-4.49h10.92c2.54,0,4.49-1.95,4.49-4.49V4.88c0-2.54,1.95-4.49,4.49-4.49h110.6c2.54,0,4.49,1.95,4.49,4.49v10.53c0,2.54,1.95,4.49,4.49,4.49h10.92c2.54,0,4.49,1.95,4.49,4.49Z"/>
        <path class="cls-1" d="m1291.24,63.39c0-2.54,1.95-4.49,4.49-4.49h10.92c2.54,0,4.49,1.95,4.49,4.49v10.53c0,2.54,1.95,4.49,4.49,4.49h10.92c2.54,0,4.49,1.95,4.49,4.49v10.53c0,2.54,1.95,4.49,4.49,4.49h10.92c2.54,0,4.49,1.95,4.49,4.49v10.53c0,2.54,1.95,4.49,4.49,4.49h10.92c2.54,0,4.49,1.95,4.49,4.49v10.53c0,2.54-1.95,4.49-4.49,4.49h-10.92c-2.54,0-4.49-1.95-4.49-4.49v-10.53c0-2.54-1.95-4.49-4.49-4.49h-10.92c-2.54,0-4.49-1.95-4.49-4.49v-10.53c0-2.54-1.95-4.49-4.49-4.49h-10.92c-2.54,0-4.49-1.95-4.49-4.49v-10.53c0-2.54-1.95-4.49-4.49-4.49h-10.92c-2.54,0-4.49-1.95-4.49-4.49v-10.53Z"/>
      </g>
      <path class="cls-1" d="m1078.88,132.43v-10.53c0-2.54-1.95-4.49-4.49-4.49h-10.92c-2.54,0-4.49-1.95-4.49-4.49V24.38c0-2.54,1.95-4.49,4.49-4.49h10.92c2.54,0,4.49-1.95,4.49-4.49V4.88c0-2.54,1.95-4.49,4.49-4.49h100.6c2.54,0,4.49,1.95,4.49,4.49v10.53c0,2.54,1.95,4.49,4.49,4.49h10.92c2.54,0,4.49,1.95,4.49,4.49v88.54c0,2.54-1.95,4.49-4.49,4.49h-10.92c-2.54,0-4.49,1.95-4.49,4.49v10.53c0,2.54-1.95,4.49-4.49,4.49h-100.6c-2.54,0-4.49-1.95-4.49-4.49Zm4.49-15.02h100.6c2.54,0,4.49-1.95,4.49-4.49V24.38c0-2.54-1.95-4.49-4.49-4.49h-100.6c-2.54,0-4.49,1.95-4.49,4.49v88.54c0,2.54,1.95,4.49,4.49,4.49Z"/>
      <path class="cls-1" d="m1609.49,24.38v112.53h-19.89V24.38c0-2.54-1.95-4.49-4.49-4.49h-60.81c-2.54,0-4.49,1.95-4.49,4.49v112.53h-19.89V24.38c0-2.54-1.95-4.49-4.49-4.49h-60.81c-2.54,0-4.49,1.95-4.49,4.49v112.53h-19.89V24.38c0-2.54,1.95-4.49,4.49-4.49h10.92c2.54,0,4.49-1.95,4.49-4.49V4.88c0-2.54,1.95-4.49,4.49-4.49h60.81c2.54,0,4.49,1.95,4.49,4.49v10.53c0,2.54,1.95,4.49,4.49,4.49h10.92c2.54,0,4.49-1.95,4.49-4.49V4.88c0-2.54,1.95-4.49,4.49-4.49h60.62c2.54,0,4.68,1.95,4.68,4.49v10.53c0,2.54,1.95,4.49,4.49,4.49h10.92c2.54,0,4.49,1.95,4.49,4.49Z"/>
      <path class="cls-1" d="m534.39,24.38v30.03c0,2.54-1.95,4.49-4.49,4.49h-10.92c-2.54,0-4.49,1.95-4.49,4.49v10.53c0,2.54-1.95,4.49-4.49,4.49h-30.92c-2.54,0-4.49-1.95-4.49-4.49v-10.53c0-2.54,1.95-4.49,4.49-4.49h30.92c2.54,0,4.49-1.95,4.49-4.49v-30.03c0-2.54-1.95-4.49-4.49-4.49h-110.6c-2.54,0-4.49,1.95-4.49,4.49v112.53h-19.89V24.38c0-2.54,1.95-4.49,4.49-4.49h10.92c2.54,0,4.49-1.95,4.49-4.49V4.88c0-2.54,1.95-4.49,4.49-4.49h110.6c2.54,0,4.49,1.95,4.49,4.49v10.53c0,2.54,1.95,4.49,4.49,4.49h10.92c2.54,0,4.49,1.95,4.49,4.49Z"/>
      <path class="cls-1" d="m434.82,63.39c0-2.54,1.95-4.49,4.49-4.49h10.92c2.54,0,4.49,1.95,4.49,4.49v10.53c0,2.54,1.95,4.49,4.49,4.49h10.92c2.54,0,4.49,1.95,4.49,4.49v10.53c0,2.54,1.95,4.49,4.49,4.49h10.92c2.54,0,4.49,1.95,4.49,4.49v10.53c0,2.54,1.95,4.49,4.49,4.49h10.92c2.54,0,4.49,1.95,4.49,4.49v10.53c0,2.54-1.95,4.49-4.49,4.49h-10.92c-2.54,0-4.49-1.95-4.49-4.49v-10.53c0-2.54-1.95-4.49-4.49-4.49h-10.92c-2.54,0-4.49-1.95-4.49-4.49v-10.53c0-2.54-1.95-4.49-4.49-4.49h-10.92c-2.54,0-4.49-1.95-4.49-4.49v-10.53c0-2.54-1.95-4.49-4.49-4.49h-10.92c-2.54,0-4.49-1.95-4.49-4.49v-10.53Z"/>
      <path class="cls-1" d="m331.83,136.91h-100.6c-2.54,0-4.49-1.95-4.49-4.49v-10.53c0-2.54-1.95-4.49-4.49-4.49h-10.92c-2.54,0-4.49-1.95-4.49-4.49V24.38c0-2.54,1.95-4.49,4.49-4.49h10.92c2.54,0,4.49-1.95,4.49-4.49V4.88c0-2.54,1.95-4.49,4.49-4.49h100.6c2.54,0,4.49,1.95,4.49,4.49v10.53c0,2.54,1.95,4.49,4.49,4.49h10.92c2.54,0,4.49,1.95,4.49,4.49v15.02h-19.89v-15.02c0-2.54-1.95-4.49-4.49-4.49h-100.6c-2.54,0-4.49,1.95-4.49,4.49v88.54c0,2.54,1.95,4.49,4.49,4.49h100.6c2.54,0,4.49-1.95,4.49-4.49v-30.03c0-2.54-1.95-4.49-4.49-4.49h-35.3v-19.5h35.3c2.54,0,4.49,1.95,4.49,4.49v10.53c0,2.54,1.95,4.49,4.49,4.49h10.92c2.54,0,4.49,1.95,4.49,4.49v30.03c0,2.54-1.95,4.49-4.49,4.49h-10.92c-2.54,0-4.49,1.95-4.49,4.49v10.53c0,2.54-1.95,4.49-4.49,4.49Z"/>
      <path class="cls-1" d="m136.83,2.55v83.17c0,1.88-1.53,3.41-3.41,3.41h-35.37c-4.09,0-7.41,3.33-7.41,7.41v34.46c0,1.88-1.53,3.41-3.41,3.41H2.24v-41.29h84.98c4.09,0,7.41-3.33,7.41-7.41V2.55h42.2m2-2h-46.2v85.17c0,2.99-2.42,5.41-5.41,5.41H.24v45.29h86.98c2.99,0,5.41-2.42,5.41-5.41v-34.46c0-2.99,2.42-5.41,5.41-5.41h35.37c2.99,0,5.41-2.42,5.41-5.41V.55h0Z"/>
      <path class="cls-1" d="m136.82,2.55v41.29H51.84c-4.09,0-7.41,3.33-7.41,7.41v83.17H2.23V51.26c0-1.88,1.53-3.41,3.41-3.41h35.37c4.09,0,7.41-3.33,7.41-7.41V5.96c0-1.88,1.53-3.41,3.41-3.41h84.98m2-2H51.84c-2.99,0-5.41,2.42-5.41,5.41v34.46c0,2.99-2.42,5.41-5.41,5.41H5.64c-2.99,0-5.41,2.42-5.41,5.41v85.17h46.2V51.26c0-2.99,2.42-5.41,5.41-5.41h86.98V.55h0Z"/>
      <rect class="cls-1" x="95.49" y="93.83" width="43.42" height="42.8" rx="3.89" ry="3.89"/>
      <rect class="cls-1" x="0" width="43.42" height="42.8" rx="3.89" ry="3.89"/>
    </g>
  </g>
</svg>